<svg width="24" height="24" viewBox="0 0 24 24" fill="none" xmlns="http://www.w3.org/2000/svg">
<g id="ios_share">
<mask id="mask0_103_2105" style="mask-type:alpha" maskUnits="userSpaceOnUse" x="0" y="0" width="24" height="24">
<rect id="Bounding box" width="24" height="24" fill="#D9D9D9"/>
</mask>
<g mask="url(#mask0_103_2105)">
<path id="ios_share_2" d="M6.30775 22.4993C5.80258 22.4993 5.375 22.3243 5.025 21.9743C4.675 21.6243 4.5 21.1967 4.5 20.6915V10.307C4.5 9.80187 4.675 9.37428 5.025 9.02428C5.375 8.67428 5.80258 8.49928 6.30775 8.49928H8.1155C8.32817 8.49928 8.50633 8.57111 8.65 8.71478C8.7935 8.85828 8.86525 9.03645 8.86525 9.24928C8.86525 9.46211 8.7935 9.64028 8.65 9.78378C8.50633 9.92745 8.32817 9.99928 8.1155 9.99928H6.30775C6.23075 9.99928 6.16025 10.0314 6.09625 10.0955C6.03208 10.1595 6 10.23 6 10.307V20.6915C6 20.7685 6.03208 20.839 6.09625 20.903C6.16025 20.9672 6.23075 20.9993 6.30775 20.9993H17.6923C17.7692 20.9993 17.8398 20.9672 17.9038 20.903C17.9679 20.839 18 20.7685 18 20.6915V10.307C18 10.23 17.9679 10.1595 17.9038 10.0955C17.8398 10.0314 17.7692 9.99928 17.6923 9.99928H15.8845C15.6718 9.99928 15.4937 9.92745 15.35 9.78378C15.2065 9.64028 15.1348 9.46211 15.1348 9.24928C15.1348 9.03645 15.2065 8.85828 15.35 8.71478C15.4937 8.57111 15.6718 8.49928 15.8845 8.49928H17.6923C18.1974 8.49928 18.625 8.67428 18.975 9.02428C19.325 9.37428 19.5 9.80187 19.5 10.307V20.6915C19.5 21.1967 19.325 21.6243 18.975 21.9743C18.625 22.3243 18.1974 22.4993 17.6923 22.4993H6.30775ZM11.25 4.71853L9.927 6.04153C9.77817 6.19036 9.60408 6.26378 9.40475 6.26178C9.20542 6.25995 9.02817 6.18145 8.873 6.02628C8.72817 5.87112 8.65317 5.69545 8.648 5.49928C8.643 5.30311 8.718 5.12753 8.873 4.97253L11.3672 2.47828C11.5481 2.29745 11.759 2.20703 12 2.20703C12.241 2.20703 12.4519 2.29745 12.6328 2.47828L15.127 4.97253C15.2653 5.11086 15.3362 5.28228 15.3395 5.48678C15.3427 5.69128 15.2718 5.87112 15.127 6.02628C14.9718 6.18145 14.7936 6.25903 14.5922 6.25903C14.3911 6.25903 14.2129 6.18145 14.0577 6.02628L12.75 4.71853V14.9993C12.75 15.2121 12.6782 15.3903 12.5345 15.5338C12.391 15.6774 12.2128 15.7493 12 15.7493C11.7872 15.7493 11.609 15.6774 11.4655 15.5338C11.3218 15.3903 11.25 15.2121 11.25 14.9993V4.71853Z" fill="#1C1B1F"/>
</g>
</g>
</svg>
