<svg width="20" height="20" viewBox="0 0 20 20" fill="none" xmlns="http://www.w3.org/2000/svg">
<mask id="mask0_1951_2598" style="mask-type:alpha" maskUnits="userSpaceOnUse" x="0" y="0" width="20" height="20">
<rect width="20" height="20" fill="#D9D9D9"/>
</mask>
<g mask="url(#mask0_1951_2598)">
<path d="M10.0014 9.88772C10.416 9.88772 10.7704 9.74008 11.0648 9.4448C11.3592 9.14952 11.5064 8.79459 11.5064 8.38001C11.5064 7.96543 11.3588 7.61091 11.0635 7.31647C10.7682 7.02216 10.4132 6.87501 9.9985 6.87501C9.58392 6.87501 9.22947 7.02265 8.93517 7.31793C8.64072 7.6132 8.4935 7.9682 8.4935 8.38293C8.4935 8.79751 8.64114 9.15196 8.93642 9.44626C9.2317 9.74057 9.5867 9.88772 10.0014 9.88772ZM9.99996 17.9246C7.90274 16.1074 6.3301 14.4162 5.28204 12.8511C4.23399 11.2858 3.70996 9.84876 3.70996 8.54001C3.70996 6.61695 4.33197 5.06008 5.576 3.86938C6.82017 2.67869 8.29482 2.08334 9.99996 2.08334C11.7051 2.08334 13.1798 2.67869 14.4239 3.86938C15.6679 5.06008 16.29 6.61695 16.29 8.54001C16.29 9.84876 15.7659 11.2858 14.7179 12.8511C13.6698 14.4162 12.0972 16.1074 9.99996 17.9246Z" fill="#A2A8AF"/>
</g>
</svg>
