<svg width="18" height="18" viewBox="0 0 18 18" fill="none" xmlns="http://www.w3.org/2000/svg">
<path d="M17.4 0.613326C17.2766 0.489722 17.1301 0.391658 16.9688 0.32475C16.8075 0.257841 16.6346 0.223401 16.46 0.223401C16.2854 0.223401 16.1125 0.257841 15.9512 0.32475C15.7899 0.391658 15.6434 0.489722 15.52 0.613326L9 7.11999L2.48 0.599993C2.35656 0.47655 2.21001 0.37863 2.04872 0.311824C1.88744 0.245017 1.71457 0.210632 1.54 0.210632C1.36543 0.210632 1.19256 0.245017 1.03128 0.311824C0.86999 0.37863 0.723442 0.47655 0.599999 0.599993C0.476557 0.723435 0.378637 0.869983 0.31183 1.03127C0.245024 1.19255 0.210639 1.36542 0.210639 1.53999C0.210639 1.71457 0.245024 1.88743 0.31183 2.04872C0.378637 2.21 0.476557 2.35655 0.599999 2.47999L7.12 8.99999L0.599999 15.52C0.476557 15.6434 0.378637 15.79 0.31183 15.9513C0.245024 16.1126 0.210639 16.2854 0.210639 16.46C0.210639 16.6346 0.245024 16.8074 0.31183 16.9687C0.378637 17.13 0.476557 17.2765 0.599999 17.4C0.723442 17.5234 0.86999 17.6214 1.03128 17.6882C1.19256 17.755 1.36543 17.7894 1.54 17.7894C1.71457 17.7894 1.88744 17.755 2.04872 17.6882C2.21001 17.6214 2.35656 17.5234 2.48 17.4L9 10.88L15.52 17.4C15.6434 17.5234 15.79 17.6214 15.9513 17.6882C16.1126 17.755 16.2854 17.7894 16.46 17.7894C16.6346 17.7894 16.8074 17.755 16.9687 17.6882C17.13 17.6214 17.2766 17.5234 17.4 17.4C17.5234 17.2765 17.6214 17.13 17.6882 16.9687C17.755 16.8074 17.7894 16.6346 17.7894 16.46C17.7894 16.2854 17.755 16.1126 17.6882 15.9513C17.6214 15.79 17.5234 15.6434 17.4 15.52L10.88 8.99999L17.4 2.47999C17.9067 1.97333 17.9067 1.11999 17.4 0.613326Z" fill="black"/>
</svg>
